<svg xmlns="http://www.w3.org/2000/svg" width="200" height="200" viewBox="0 0 52.917 52.917"><circle cx="26.46" cy="270.607" r="22.985" fill="#ef5350" transform="translate(0 -244.083)"/><path d="M37.897 20.805H33.88a8.556 8.556 0 0 0-2.602-2.802l2.33-2.33-2.016-2.017-3.102 3.103a8.67 8.67 0 0 0-2.03-.243c-.7 0-1.373.086-2.016.243l-3.117-3.103-2.016 2.016 2.316 2.33a8.667 8.667 0 0 0-2.588 2.803h-4.017v2.86h2.988a9.49 9.49 0 0 0-.129 1.43v1.429h-2.859v2.86h2.86v1.429c0 .486.057.958.128 1.43h-2.988v2.86h4.017c1.487 2.558 4.247 4.288 7.42 4.288 3.175 0 5.934-1.73 7.42-4.289h4.018v-2.86H34.91a9.49 9.49 0 0 0 .129-1.43v-1.429h2.86v-2.86h-2.86v-1.429a9.49 9.49 0 0 0-.129-1.43h2.988zM29.32 32.243H23.6v-2.86h5.72zm0-5.72H23.6v-2.859h5.72z" opacity=".5"/></svg>
