<svg xmlns="http://www.w3.org/2000/svg" width="200" height="200" viewBox="0 0 52.917 52.917"><circle cx="26.46" cy="270.607" r="22.985" fill="#f9a825" transform="translate(0 -244.083)"/><path d="M33.736 22.28h-1.213v-2.426a6.066 6.066 0 0 0-6.063-6.064 6.066 6.066 0 0 0-6.064 6.064v2.425h-1.213a2.433 2.433 0 0 0-2.425 2.426v12.127a2.433 2.433 0 0 0 2.425 2.426h14.553a2.433 2.433 0 0 0 2.426-2.426V24.705a2.433 2.433 0 0 0-2.426-2.426zM26.46 33.193a2.433 2.433 0 0 1-2.426-2.426 2.433 2.433 0 0 1 2.426-2.425 2.433 2.433 0 0 1 2.425 2.425 2.433 2.433 0 0 1-2.425 2.426zm3.76-10.915H22.7v-2.425a3.763 3.763 0 0 1 3.76-3.76 3.763 3.763 0 0 1 3.76 3.76z" opacity=".5"/></svg>
